<svg t="1580892277466" class="icon" viewBox="0 0 1024 1024" version="1.1" xmlns="http://www.w3.org/2000/svg" p-id="2085" xmlns:xlink="http://www.w3.org/1999/xlink" width="200" height="200"><path d="M846.987636 128.977455a196.352 196.352 0 0 1 18.827637 263.447272L515.537455 731.531636c-2.187636 2.490182-4.654545 4.957091-6.981819 7.447273a123.136 123.136 0 0 1-169.890909 0 113.570909 113.570909 0 0 1-4.654545-159.255273q2.327273-2.466909 4.654545-4.654545c2.443636-2.490182 5.189818-4.654545 7.656728-6.981818l278.690909-269.265455c0.279273-0.558545 0.814545-0.837818 1.093818-1.373091a37.050182 37.050182 0 0 1 50.525091 0 33.396364 33.396364 0 0 1 2.024727 46.824728c-0.651636 0.721455-1.326545 1.396364-2.024727 2.048a14.359273 14.359273 0 0 1-3.002182 2.769454L397.963636 617.774545a46.359273 46.359273 0 0 0-8.192 6.353455 45.428364 45.428364 0 0 0-1.722181 63.720727c0.558545 0.605091 1.140364 1.163636 1.722181 1.745455a48.733091 48.733091 0 0 0 67.700364 0 44.381091 44.381091 0 0 0 6.562909-7.726546l350.021818-339.386181a127.860364 127.860364 0 0 0-18.129454-164.072728 139.380364 139.380364 0 0 0-169.890909-17.664L234.589091 549.236364a201.751273 201.751273 0 0 0 16.104727 274.618181 219.252364 219.252364 0 0 0 283.927273 15.476364L803.304727 579.490909l0.535273 0.279273a36.770909 36.770909 0 0 1 50.525091 0.279273 33.419636 33.419636 0 0 1 1.745454 46.824727 31.278545 31.278545 0 0 1-1.745454 1.768727l0.279273 0.279273-271.941819 263.051636-0.279272-0.628363a293.236364 293.236364 0 0 1-382.789818-18.152728 269.963636 269.963636 0 0 1-16.29091-373.620363L574.510545 110.754909a213.550545 213.550545 0 0 1 272.477091 18.222546z" p-id="2086"></path></svg>
