<?xml version="1.0" standalone="no"?><!DOCTYPE svg PUBLIC "-//W3C//DTD SVG 1.1//EN" "http://www.w3.org/Graphics/SVG/1.1/DTD/svg11.dtd"><svg t="1594691722474" class="icon" viewBox="0 0 1024 1024" version="1.1" xmlns="http://www.w3.org/2000/svg" p-id="8096" xmlns:xlink="http://www.w3.org/1999/xlink" width="200" height="200"><defs><style type="text/css"></style></defs><path d="M341.333333 170.666667h554.666667v85.333333H341.333333V170.666667zM192 277.333333a64 64 0 1 1 0-128 64 64 0 0 1 0 128z m0 298.666667a64 64 0 1 1 0-128 64 64 0 0 1 0 128z m0 294.4a64 64 0 1 1 0-128 64 64 0 0 1 0 128zM341.333333 469.333333h554.666667v85.333334H341.333333v-85.333334z m0 298.666667h554.666667v85.333333H341.333333v-85.333333z" p-id="8097"></path></svg>