<?xml version="1.0" standalone="no"?><!DOCTYPE svg PUBLIC "-//W3C//DTD SVG 1.1//EN" "http://www.w3.org/Graphics/SVG/1.1/DTD/svg11.dtd"><svg t="1594710241012" class="icon" viewBox="0 0 1024 1024" version="1.1" xmlns="http://www.w3.org/2000/svg" p-id="8364" xmlns:xlink="http://www.w3.org/1999/xlink" width="200" height="200"><defs><style type="text/css"></style></defs><path d="M85.333333 170.368A42.666667 42.666667 0 0 1 127.658667 128h768.682666c23.381333 0 42.325333 18.986667 42.325334 42.368v683.264a42.666667 42.666667 0 0 1-42.325334 42.368H127.658667A42.368 42.368 0 0 1 85.333333 853.632V170.368zM341.333333 213.333333v597.333334h341.333334V213.333333H341.333333zM170.666667 213.333333v85.333334h85.333333V213.333333H170.666667z m597.333333 0v85.333334h85.333333V213.333333h-85.333333zM170.666667 384v85.333333h85.333333V384H170.666667z m597.333333 0v85.333333h85.333333V384h-85.333333zM170.666667 554.666667v85.333333h85.333333v-85.333333H170.666667z m597.333333 0v85.333333h85.333333v-85.333333h-85.333333zM170.666667 725.333333v85.333334h85.333333v-85.333334H170.666667z m597.333333 0v85.333334h85.333333v-85.333334h-85.333333z" p-id="8365"></path></svg>