<svg t="1580719405422" class="icon" viewBox="0 0 1024 1024" version="1.1" xmlns="http://www.w3.org/2000/svg" p-id="2393" xmlns:xlink="http://www.w3.org/1999/xlink" width="200" height="200"><path d="M392.70731752 116.4921875c21.9770482 0 39.79057872 17.86623348 39.79057871 39.73787575v230.78535688c0 28.09056773-16.86488108 44.90274584-45.008151 44.90274585H156.33546918A39.84328168 39.84328168 0 0 1 116.4921875 392.23299319c0-21.92434524 17.91893644-39.73787575 39.84328168-39.73787654H298.31668676L127.92868523 182.37062916a38.4730101 38.4730101 0 0 1 0-54.38924174 39.36895657 39.36895657 0 0 1 54.60005204 0l170.22989342 170.12448827V156.28276622A39.94868683 39.94868683 0 0 1 392.70731752 116.4921875z m278.0070245 39.79057872v141.77040651l170.22989265-170.07178531a39.36895657 39.36895657 0 0 1 54.60005281 0 38.4730101 38.4730101 0 0 1 0 54.38924174l-170.38800152 170.0717853h142.03392053c21.9770482 0 39.84328168 17.81353051 39.84328091 39.73787576 0 21.87164229-17.91893644 39.68517356-39.84328091 39.68517357H636.03592965c-28.19597287 0-45.008151-16.81217812-45.00815099-44.90274585V156.28276622a39.79057872 39.79057872 0 0 1 79.68656336 0z m-317.90300837 710.96014246v-141.87581165l-170.22989342 170.12448749a39.36895657 39.36895657 0 0 1-54.60005281 0 38.4730101 38.4730101 0 0 1 0-54.38924098l170.38800152-170.0717853H156.33546918A39.84328168 39.84328168 0 0 1 116.4921875 631.29268248c0-21.87164229 17.91893644-39.68517356 39.84328168-39.68517356h231.15427606c28.19597287 0 45.008151 16.81217812 45.00815099 44.90274585v230.83805983a39.79057872 39.79057872 0 0 1-79.68656258-0.15810811z m278.00702373 39.73787653a39.79057872 39.79057872 0 0 1-39.79057872-39.73787653V636.4575518c0-28.09056773 16.86488108-44.90274584 45.00815099-44.90274585h231.15427684c21.9770482 0 39.84328168 17.81353051 39.8432809 39.73787653 0 21.87164229-17.91893644 39.68517356-39.8432809 39.68517279H725.20898892l170.38800152 170.07178532a38.4730101 38.4730101 0 0 1 0 54.38924173 39.36895657 39.36895657 0 0 1-54.60005281 0l-170.22989342-170.12448826v141.82310947c0 21.9770482-17.91893644 39.84328168-39.89598387 39.84328168z" p-id="2394"></path></svg>
