<?xml version="1.0" standalone="no"?><!DOCTYPE svg PUBLIC "-//W3C//DTD SVG 1.1//EN" "http://www.w3.org/Graphics/SVG/1.1/DTD/svg11.dtd"><svg t="1594691751636" class="icon" viewBox="0 0 1024 1024" version="1.1" xmlns="http://www.w3.org/2000/svg" p-id="8215" xmlns:xlink="http://www.w3.org/1999/xlink" width="200" height="200"><defs><style type="text/css"></style></defs><path d="M341.333333 170.666667h554.666667v85.333333H341.333333V170.666667zM213.333333 128v128h42.666667v42.666667H128V256h42.666667V170.666667H128V128h85.333333zM128 597.333333v-106.666666h85.333333V469.333333H128v-42.666666h128v106.666666H170.666667v21.333334h85.333333v42.666666H128z m85.333333 234.666667H128v-42.666667h85.333333V768H128v-42.666667h128v170.666667H128v-42.666667h85.333333v-21.333333zM341.333333 469.333333h554.666667v85.333334H341.333333v-85.333334z m0 298.666667h554.666667v85.333333H341.333333v-85.333333z" p-id="8216"></path></svg>