<?xml version="1.0" standalone="no"?><!DOCTYPE svg PUBLIC "-//W3C//DTD SVG 1.1//EN" "http://www.w3.org/Graphics/SVG/1.1/DTD/svg11.dtd"><svg t="1594695803994" class="icon" viewBox="0 0 1024 1024" version="1.1" xmlns="http://www.w3.org/2000/svg" p-id="7888" xmlns:xlink="http://www.w3.org/1999/xlink" width="200" height="200"><defs><style type="text/css"></style></defs><path d="M195.541333 739.029333C151.594667 692.352 128 640 128 555.136c0-149.333333 104.832-283.178667 257.28-349.354667l38.101333 58.794667c-142.293333 76.970667-170.112 176.853333-181.205333 239.829333 22.912-11.861333 52.906667-16 82.304-13.269333 76.970667 7.125333 137.642667 70.314667 137.642667 148.864a149.333333 149.333333 0 0 1-149.333334 149.333333 165.162667 165.162667 0 0 1-117.248-50.304z m426.666667 0C578.261333 692.352 554.666667 640 554.666667 555.136c0-149.333333 104.832-283.178667 257.28-349.354667l38.101333 58.794667c-142.293333 76.970667-170.112 176.853333-181.205333 239.829333 22.912-11.861333 52.906667-16 82.304-13.269333 76.970667 7.125333 137.642667 70.314667 137.642666 148.864a149.333333 149.333333 0 0 1-149.333333 149.333333 165.162667 165.162667 0 0 1-117.248-50.304z" p-id="7889"></path></svg>