<?xml version="1.0" standalone="no"?><!DOCTYPE svg PUBLIC "-//W3C//DTD SVG 1.1//EN" "http://www.w3.org/Graphics/SVG/1.1/DTD/svg11.dtd"><svg t="1594709200140" class="icon" viewBox="0 0 1024 1024" version="1.1" xmlns="http://www.w3.org/2000/svg" p-id="8245" xmlns:xlink="http://www.w3.org/1999/xlink" width="200" height="200"><defs><style type="text/css"></style></defs><path d="M554.666667 426.666667v170.666666h256v-170.666666h-256z m-85.333334 0H213.333333v170.666666h256v-170.666666z m85.333334 384h256v-128h-256v128z m-85.333334 0v-128H213.333333v128h256z m85.333334-597.333334v128h256V213.333333h-256z m-85.333334 0H213.333333v128h256V213.333333zM170.666667 128h682.666666a42.666667 42.666667 0 0 1 42.666667 42.666667v682.666666a42.666667 42.666667 0 0 1-42.666667 42.666667H170.666667a42.666667 42.666667 0 0 1-42.666667-42.666667V170.666667a42.666667 42.666667 0 0 1 42.666667-42.666667z" p-id="8246"></path></svg>